<svg id="Layer_1" data-name="Layer 1" xmlns="http://www.w3.org/2000/svg" viewBox="0 0 630.12 411.15"><defs><style>.cls-1{fill:none;stroke:#4bbfbd;stroke-miterlimit:10;stroke-width:32px;}</style></defs><title>devops</title><path class="cls-1" d="M498.38,261.87a124.3,124.3,0,0,0-14.3.86A100.06,100.06,0,0,0,388.63,192a98.08,98.08,0,0,0-32.08,5.35,129.62,129.62,0,0,0-247.27,54.5,128,128,0,0,0,3.89,31.19,109.75,109.75,0,0,0,16.07,218.24H498.38a119.73,119.73,0,0,0,0-239.45Zm0,219.49H129.24a89.73,89.73,0,0,1-2.68-179.43,10,10,0,0,0,9.12-13.32,109.63,109.63,0,0,1,206.09-74.82,10,10,0,0,0,13.53,5.58A79.63,79.63,0,0,1,466.86,276a10,10,0,0,0,11.76,7.81,101.55,101.55,0,0,1,19.76-2,99.77,99.77,0,1,1,0,199.53Z" transform="translate(-3.98 -106.17)"/></svg>