<svg id="Capa_1" data-name="Capa 1" xmlns="http://www.w3.org/2000/svg" viewBox="0 0 512 390"><defs><style>.cls-1{fill:#4bbfbd;}</style></defs><title>email</title><path class="cls-1" d="M467,61H45A45.08,45.08,0,0,0,0,106V406a45.07,45.07,0,0,0,45,45H467a45.07,45.07,0,0,0,45-45V106A45.07,45.07,0,0,0,467,61Zm-6.21,30L257,294.83,51.36,91ZM30,399.79V112.07L174.48,255.31ZM51.21,421,195.78,276.43l50.66,50.22a15,15,0,0,0,21.17,0L317,277.21,460.79,421ZM482,399.79,338.21,256,482,112.21Z" transform="translate(0 -61)"/></svg>