<svg id="Layer_1" data-name="Layer 1" xmlns="http://www.w3.org/2000/svg" viewBox="0 0 512 426.67"><defs><style>.cls-1{fill:#4bbfbd;}</style></defs><title>firstname</title><path class="cls-1" d="M453.33,85.67h-112V80.33A37.37,37.37,0,0,0,304,43H208a37.37,37.37,0,0,0-37.33,37.33v5.34h-112A58.71,58.71,0,0,0,0,144.33V411a58.72,58.72,0,0,0,58.67,58.67H453.33A58.72,58.72,0,0,0,512,411V144.33A58.71,58.71,0,0,0,453.33,85.67ZM298.69,128.33H213.33V85.67h85.34ZM160,192.33a53.34,53.34,0,1,1-53.33,53.34A53.41,53.41,0,0,1,160,192.33Zm96,197.34a16,16,0,0,1-16,16H80a16,16,0,0,1-16-16V379a58.72,58.72,0,0,1,58.67-58.67h74.66A58.72,58.72,0,0,1,256,379Zm176,16H314.67a16,16,0,0,1,0-32H432a16,16,0,0,1,0,32Zm0-85.34H314.67a16,16,0,0,1,0-32H432a16,16,0,0,1,0,32ZM432,235H314.67a16,16,0,0,1,0-32H432a16,16,0,0,1,0,32Z" transform="translate(0 -43)"/></svg>