<svg id="Layer_1" data-name="Layer 1" xmlns="http://www.w3.org/2000/svg" viewBox="0 0 512 426.67"><defs><style>.cls-1{fill:#4bbfbd;}</style></defs><title>lastname</title><path class="cls-1" d="M453.33,469.67H58.67A58.72,58.72,0,0,1,0,411V144.33A58.71,58.71,0,0,1,58.67,85.67h128a16,16,0,0,1,0,32h-128A26.7,26.7,0,0,0,32,144.33V411a26.71,26.71,0,0,0,26.67,26.67H453.33A26.71,26.71,0,0,0,480,411V144.33a26.7,26.7,0,0,0-26.67-26.66h-128a16,16,0,0,1,0-32h128A58.71,58.71,0,0,1,512,144.33V411A58.72,58.72,0,0,1,453.33,469.67Z" transform="translate(0 -43)"/><path class="cls-1" d="M304,160.33H208A37.36,37.36,0,0,1,170.67,123V80.33A37.37,37.37,0,0,1,208,43h96a37.37,37.37,0,0,1,37.33,37.33V123A37.36,37.36,0,0,1,304,160.33ZM208,75a5.33,5.33,0,0,0-5.33,5.33V123a5.32,5.32,0,0,0,5.33,5.33h96a5.32,5.32,0,0,0,5.33-5.33V80.33A5.33,5.33,0,0,0,304,75Z" transform="translate(0 -43)"/><path class="cls-1" d="M160,299a53.34,53.34,0,1,1,53.33-53.33A53.4,53.4,0,0,1,160,299Zm0-74.67a21.34,21.34,0,1,0,21.33,21.34A21.37,21.37,0,0,0,160,224.33Z" transform="translate(0 -43)"/><path class="cls-1" d="M240,405.67a16,16,0,0,1-16-16V379a26.71,26.71,0,0,0-26.67-26.67H122.67A26.71,26.71,0,0,0,96,379v10.67a16,16,0,0,1-32,0V379a58.72,58.72,0,0,1,58.67-58.67h74.66A58.72,58.72,0,0,1,256,379v10.67A16,16,0,0,1,240,405.67Z" transform="translate(0 -43)"/><path class="cls-1" d="M432,235H314.67a16,16,0,0,1,0-32H432a16,16,0,0,1,0,32Z" transform="translate(0 -43)"/><path class="cls-1" d="M432,320.33H314.67a16,16,0,0,1,0-32H432a16,16,0,0,1,0,32Z" transform="translate(0 -43)"/><path class="cls-1" d="M432,405.67H314.67a16,16,0,0,1,0-32H432a16,16,0,0,1,0,32Z" transform="translate(0 -43)"/></svg>