<svg id="Capa_1" data-name="Capa 1" xmlns="http://www.w3.org/2000/svg" viewBox="0 0 512 448.75"><defs><style>.cls-1{fill:#4bbfbd;}</style></defs><title>message</title><path class="cls-1" d="M0,349a15,15,0,0,0,23.71,12.21l82.47-58.83a40.39,40.39,0,0,1,23.56-7.54H311.13A58,58,0,0,0,369,237V46.63a15,15,0,0,0-15-15H57.9A58,58,0,0,0,0,89.53ZM30,89.53a27.93,27.93,0,0,1,27.9-27.9H339V237a27.94,27.94,0,0,1-27.9,27.9H129.74a70.19,70.19,0,0,0-41,13.12L30,319.9Z" transform="translate(0 -31.63)"/><path class="cls-1" d="M512,205.88A58,58,0,0,0,454.1,148H414a15,15,0,0,0,0,30H454.1A27.93,27.93,0,0,1,482,205.88V436.24l-58.76-41.92a70.18,70.18,0,0,0-41-13.11H200.87A28,28,0,0,1,173,353.3V339.86a15,15,0,0,0-30,0V353.3a58,58,0,0,0,57.9,57.91H382.26a40.3,40.3,0,0,1,23.56,7.54l82.47,58.83A15,15,0,0,0,512,465.37V205.88Z" transform="translate(0 -31.63)"/><path class="cls-1" d="M107.86,143.34H281.17a15,15,0,0,0,0-30H107.86a15,15,0,1,0,0,30Z" transform="translate(0 -31.63)"/><path class="cls-1" d="M107.86,213.34H281.17a15,15,0,0,0,0-30H107.86a15,15,0,1,0,0,30Z" transform="translate(0 -31.63)"/></svg>