<svg id="svg255" xmlns="http://www.w3.org/2000/svg" viewBox="0 0 597.38 533.33"><title>reddit</title><g id="Artwork"><g id="g252"><path id="path250" d="M898.69,404.72a65.64,65.64,0,0,0-65.62-65.61,63,63,0,0,0-45.14,18.37c-44.62-32-106.57-53-174.81-55.64L643,161.68l97.12,20.47a46.74,46.74,0,1,0,46.72-48.82,45.4,45.4,0,0,0-41.47,26.25l-108.66-23.1a13.1,13.1,0,0,0-8.93,1.58c-2.62,1.57-4.2,4.2-5.25,7.35L589.5,301.84c-69.82,2.1-132.28,22.57-177.43,55.64a65.34,65.34,0,0,0-110.76,47.24c0,26.78,15.75,49.35,38.85,59.85a122.77,122.77,0,0,0-1.58,19.94c0,100.79,117.06,182.16,261.94,182.16s262-81.37,262-182.16a116.41,116.41,0,0,0-1.58-19.42c21.52-10.5,37.8-33.59,37.8-60.37ZM449.87,451.44a46.72,46.72,0,1,1,46.72,46.72A46.83,46.83,0,0,1,449.87,451.44ZM710.76,574.8c-32,32-92.91,34.12-110.76,34.12s-79.27-2.62-110.76-34.12a12.25,12.25,0,1,1,17.32-17.32c19.95,19.95,63,27.3,94,27.3s73.5-7.35,94-27.3a12.36,12.36,0,0,1,17.32,0c3.68,5.25,3.68,12.6-1,17.32Zm-8.4-76.64a46.72,46.72,0,1,1,46.72-46.72A46.82,46.82,0,0,1,702.36,498.16Z" transform="translate(-301.31 -133.33)"/></g></g></svg>