<svg id="Capa_1" data-name="Capa 1" xmlns="http://www.w3.org/2000/svg" viewBox="0 0 335.08 261.56"><defs><style>.cls-1{fill:#4bbfbd;}</style></defs><title>subject</title><path class="cls-1" d="M311.17,115.78c-1.35-10.19-1.54-27.74,7.92-33.63a2.73,2.73,0,0,0,.44-.39c7.74-2.48,13.09-6,8.89-10.62L214.32,36.76,29.56,62.44s-21.16,3-19.27,35.9c1,17.89,6.64,26.68,11.55,31L6.68,133.91c-4.21,4.67,1.14,8.14,8.88,10.61a2.38,2.38,0,0,0,.44.4c9.45,5.9,9.27,23.44,7.91,33.63-34,9.65-21.77,12.79-21.77,12.79l7.45,1.8C4.35,197.88-.86,206.86.12,223.89,2,256.76,19.39,259,19.39,259l120.9,39.3,182.49-44.2S335,251,301,241.33c-1.36-10.18-1.55-27.72,7.92-33.63a2.36,2.36,0,0,0,.44-.39c7.74-2.48,13.09-5.95,8.89-10.62l-7.94-2.39c5.29-3.19,13.24-11.53,14.48-33.19.86-14.89-3-23.62-7.52-28.75l15.68-3.8S345.15,125.42,311.17,115.78Zm-152.64-.43,30.69-6.3L292.93,87.74l15.45-3.18c-4.94,9-4.73,21.4-3.91,29.35.18,1.79.38,3.44.58,4.69l-16.91,4.2-130.9,32.56Zm-131.82,32,15.45,3.17L141.76,171l8.7,1.78h0l26.09,5.36,1.29,40L43.3,184.67,30,181.38c.2-1.25.4-2.89.59-4.7C31.44,168.74,31.65,156.37,26.71,147.34Zm-6-50.58c-.19-8.75,1.37-15.07,4.52-18.28a8.21,8.21,0,0,1,6-2.48,10.25,10.25,0,0,1,1.52.12l79.6,25.95,39.72,13-1.3,40.29L39.33,124.07l-5.88-1.65a3.58,3.58,0,0,0-.73-.11C32.26,122.28,21.24,121.26,20.71,96.76ZM140.58,280.87,23.28,248a4.63,4.63,0,0,0-.73-.12c-.47,0-11.49-1-12-25.54-.19-8.75,1.37-15.07,4.52-18.29a8.21,8.21,0,0,1,6-2.48,10.25,10.25,0,0,1,1.52.12h0l119.31,38.91Zm153.7-41.41c.19,1.8.39,3.44.6,4.69L147.06,280.92l1.3-40,31.6-6.49,4.66,1.13,17.5-5.69,80.63-16.57,15.45-3.18C293.26,219.15,293.47,231.52,294.28,239.46Zm8.15-54.38a3,3,0,0,0-.79.13l-11.15,3.12L184.34,218.09,183,177.8l34.83-11.36,84.32-27.5a8.8,8.8,0,0,1,7.69,2.32c3.14,3.21,4.7,9.53,4.52,18.28C313.85,184,302.83,185.05,302.43,185.08Z" transform="translate(0 -36.76)"/></svg>